#!OML:ASF H:\Male1\Project 1\Capture day 1\Session 1\Male1.ASF
:FULLY-SPECIFIED
:DEGREES
399
root -18.3914 14.7066 0.725488 1085.76 82.4303 -714.992
lowerback 5.58178 1.72343 0.355054
upperback 3.89223 2.42814 -2.7558
thorax 1.01606 1.3043 -3.1441
lowerneck -7.99591 3.87993 6.86074
upperneck 16.8964 4.79897 -1.65993
head 6.67695 2.68993 -1.25847
rclavicle -3.21037e-014 6.36111e-015
rhumerus -30.3349 5.67775 -95.4721
rradius 31.7598
rwrist -18.0333
rhand -17.8231 0.00253565
rfingers 7.12502
rthumb 8.44109 -29.8088
lclavicle -3.21037e-014 6.36111e-015
lhumerus -36.6583 8.38312 73.5637
lradius 23.6419
lwrist -10.6209
lhand -17.275 13.5712
lfingers 7.12502
lthumb 8.96995 43.3606
rfemur 1.6536 6.87075 26.4808
rtibia 35.1987
rfoot -29.8902 -20.9745
rtoes -35.4553
lfemur -24.5738 -9.11152 -23.0923
ltibia 43.0487
lfoot -24.1067 16.6705
ltoes -6.37805
400
root -18.2283 14.7308 0.70159 1084.7 82.6378 -716.126
lowerback 5.46232 1.65498 0.34076
upperback 3.91721 2.33734 -2.70146
thorax 1.09984 1.25827 -3.0712
lowerneck -8.03153 3.87314 6.85591
upperneck 17.0716 4.79776 -1.67868
head 6.7396 2.69133 -1.26182
rclavicle -5.56597e-015 1.27222e-014
rhumerus -30.3003 5.53177 -95.3141
rradius 31.8206
rwrist -17.9549
rhand -17.9851 0.0505564
rfingers 7.12502
rthumb 8.28471 -29.767
lclavicle -5.56597e-015 1.27222e-014
lhumerus -36.0377 9.10312 73.6344
lradius 23.1331
lwrist -11.3459
lhand -17.2965 13.6601
lfingers 7.12502
lthumb 8.9492 43.4503
rfemur 0.170178 5.48064 26.0292
rtibia 38.5588
rfoot -27.8964 -19.8399
rtoes -36.1996
lfemur -23.5272 -8.91638 -23.1929
ltibia 42.3371
lfoot -24.2087 16.5918
ltoes -7.06935
401
root -18.0606 14.7555 0.676498 1083.21 82.5954 -717.443
lowerback 5.5505 1.66548 0.328378
upperback 3.99273 2.35321 -2.63866
thorax 1.12639 1.26687 -3.00168
lowerneck -8.05064 3.90366 7.07829
upperneck 17.2159 4.85801 -1.94798
head 6.80435 2.7155 -1.37777
rclavicle 1.02374e-014 -5.56597e-015
rhumerus -30.3321 5.38418 -95.1132
rradius 31.895
rwrist -17.9898
rhand -18.0207 0.260196
rfingers 7.12502
rthumb 8.25034 -29.5587
lclavicle 1.02374e-014 -5.56597e-015
lhumerus -35.3148 10.0522 73.6877
lradius 22.5097
lwrist -12.2272
lhand -17.2457 13.312
lfingers 7.12502
lthumb 8.9983 43.1001
rfemur -1.45439 4.43691 25.5975
rtibia 42.4804
rfoot -25.5134 -18.601
rtoes -35.803
lfemur -22.0678 -8.60778 -23.3157
ltibia 41.4777
lfoot -24.653 16.4959
ltoes -6.82655
402
root -17.9017 14.7793 0.658472 1084.55 82.7512 -716.02
lowerback 5.66854 1.59702 -0.119778
upperback 4.00722 2.24419 -2.63565
thorax 1.05208 1.20375 -2.74606
lowerneck -7.98806 3.98688 7.17109
upperneck 17.3204 4.98969 -2.06362
head 6.83865 2.7785 -1.4188
rclavicle 1.05356e-014 -9.54166e-015
rhumerus -30.4201 5.27332 -94.9165
rradius 32.0803
rwrist -18.0041
rhand -17.8838 0.225367
rfingers 7.12502
rthumb 8.38251 -29.5883
lclavicle 1.05356e-014 -9.54166e-015
lhumerus -34.5233 11.1562 73.7795
lradius 21.8727
lwrist -13.1157
lhand -17.2475 13.0866
lfingers 7.12502
lthumb 8.99651 42.8748
rfemur -3.62426 3.64539 24.9364
rtibia 46.8005
rfoot -21.9259 -17.8529
rtoes -35.457
lfemur -20.71 -8.40898 -23.7497
ltibia 40.4571
lfoot -24.9094 16.3438
ltoes -7.05294
403
root -17.7374 14.7983 0.643398 1090.97 82.9327 -709.485
lowerback 5.69212 1.48629 -1.21056
upperback 4.06997 2.06033 -2.76963
thorax 1.06254 1.09519 -2.26381
lowerneck -7.99059 4.05933 7.02232
upperneck 17.4502 5.09563 -1.94401
head 6.87883 2.8325 -1.34565
rclavicle -1.14301e-014 7.95139e-015
rhumerus -30.4623 5.35104 -94.7112
rradius 32.3064
rwrist -18.1119
rhand -17.634 0.428175
rfingers 7.12502
rthumb 8.62357 -29.3757
lclavicle -1.14301e-014 7.95139e-015
lhumerus -33.6814 11.9678 74.1194
lradius 21.378
lwrist -13.6251
lhand -17.359 13.2927
lfingers 7.12502
lthumb 8.8889 43.0855
rfemur -6.00263 3.08448 23.7031
rtibia 51.2576
rfoot -18.3989 -17.1855
rtoes -35.317
lfemur -19.2151 -8.55782 -24.8686
ltibia 39.2575
lfoot -25.2523 16.2655
ltoes -6.63555
404
root -17.5689 14.8125 0.629225 1099.05 83.0654 -701.191
lowerback 5.77583 1.38953 -2.39253
upperback 4.18316 1.89668 -2.97453
thorax 1.10007 0.997533 -1.80652
lowerneck -8.01799 4.08565 6.96262
upperneck 17.4803 5.13105 -1.89732
head 6.89214 2.84968 -1.31696
rclavicle 2.00773e-014 -3.18055e-015
rhumerus -30.4102 5.3204 -94.5098
rradius 32.4635
rwrist -18.277
rhand -17.4943 0.696741
rfingers 7.12502
rthumb 8.75835 -29.1015
lclavicle 2.00773e-014 -3.18055e-015
lhumerus -32.8156 11.9886 74.8033
lradius 21.165
lwrist -13.5019
lhand -17.4638 13.7382
lfingers 7.12502
lthumb 8.78779 43.5352
rfemur -8.32223 2.60165 22.3728
rtibia 55.5493
rfoot -15.0598 -16.7448
rtoes -37.173
lfemur -17.5431 -8.94236 -26.2038
ltibia 37.9452
lfoot -25.4678 16.3513
ltoes -6.52962
405
root -17.405 14.8211 0.617442 1105.9 83.2542 -694.018
lowerback 6.11459 1.26127 -3.37111
upperback 4.26695 1.68304 -3.11993
thorax 0.976548 0.878917 -1.40724
lowerneck -7.95376 4.08829 7.13696
upperneck 17.472 5.14355 -2.06002
head 6.88787 2.85426 -1.39791
rclavicle 1.39149e-015 2.62396e-014
rhumerus -30.4734 5.09648 -94.3848
rradius 32.6873
rwrist -18.165
rhand -17.5903 0.730577
rfingers 7.12502
rthumb 8.66573 -29.0716
lclavicle 1.39149e-015 2.62396e-014
lhumerus -32.0404 11.4205 75.7089
lradius 21.2357
lwrist -12.971
lhand -17.4939 14.0697
lfingers 7.12502
lthumb 8.75872 43.868
rfemur -10.5688 2.12746 21.4042
rtibia 59.4098
rfoot -15.1326 -16.1499
rtoes -37.4825
lfemur -15.7757 -9.3178 -27.2917
ltibia 36.6621
lfoot -25.6738 16.1391
ltoes -5.71425
